<?xml version="1.0" encoding="iso-8859-1"?>
<!-- Uploaded to: SVG Repo, www.svgrepo.com, Generator: SVG Repo Mixer Tools -->
<svg version="1.1" id="Layer_1" xmlns="http://www.w3.org/2000/svg" xmlns:xlink="http://www.w3.org/1999/xlink"
	 viewBox="0 0 512 512" xml:space="preserve">
<path style="fill:#FF757C;" d="M485.813,196.579H26.187c-8.829,0-15.988,7.158-15.988,15.988v86.865
	c0,8.829,7.158,15.988,15.988,15.988h459.626c8.829,0,15.988-7.158,15.988-15.988v-86.865
	C501.801,203.738,494.643,196.579,485.813,196.579z"/>
<g>
	<path style="fill:#4D4D4D;" d="M485.813,325.62H26.187C11.748,325.62,0,313.871,0,299.432v-86.865
		c0-14.439,11.748-26.187,26.187-26.187h459.625c14.439,0,26.187,11.748,26.187,26.187v86.865
		C512,313.871,500.252,325.62,485.813,325.62z M26.187,206.779c-3.192,0-5.789,2.597-5.789,5.789v86.865
		c0,3.192,2.597,5.789,5.789,5.789h459.625c3.192,0,5.789-2.597,5.789-5.789v-86.865c0-3.192-2.597-5.789-5.789-5.789
		L26.187,206.779L26.187,206.779z"/>
	<path style="fill:#4D4D4D;" d="M163.108,289.769H48.013c-5.632,0-10.199-4.567-10.199-10.199c0-5.632,4.567-10.199,10.199-10.199
		h115.095c5.632,0,10.199,4.567,10.199,10.199C173.307,285.201,168.74,289.769,163.108,289.769z"/>
	<path style="fill:#4D4D4D;" d="M206.615,289.769h-7.081c-5.632,0-10.199-4.567-10.199-10.199c0-5.632,4.567-10.199,10.199-10.199
		h7.081c5.632,0,10.199,4.567,10.199,10.199C216.815,285.201,212.248,289.769,206.615,289.769z"/>
</g>
</svg>